Coordinates
version=1
nRows=5
nColumns=40
inDegrees=yes
endheader
time	pelvis_tilt	pelvis_list	pelvis_rotation	pelvis_tx	pelvis_ty	pelvis_tz	hip_flexion_r	hip_adduction_r	hip_rotation_r	knee_angle_r	knee_angle_r_beta	ankle_angle_r	subtalar_angle_r	mtp_angle_r	hip_flexion_l	hip_adduction_l	hip_rotation_l	knee_angle_l	knee_angle_l_beta	ankle_angle_l	subtalar_angle_l	mtp_angle_l	lumbar_extension	lumbar_bending	lumbar_rotation	arm_flex_r	arm_add_r	arm_rot_r	elbow_flex_r	pro_sup_r	wrist_flex_r	wrist_dev_r	arm_flex_l	arm_add_l	arm_rot_l	elbow_flex_l	pro_sup_l	wrist_flex_l	wrist_dev_l
1760624953.55971503	      8.93800768	     -1.55441093	      0.15571300	      0.16697268	      0.86809150	     -0.00427448	     80.00000000	     -7.00000000	      0.00000000	     80.00000000	      1.39626340	      0.00000000	      0.00000000	      0.00000000	     80.00000000	     -7.00000000	      0.00000000	     80.00000000	      1.39626340	      0.00000000	      0.00000000	      0.00000000	    -16.55428547	     -1.54003604	      2.89601228	      2.74771883	     -7.75388245	     -4.76953432	     95.71824890	    179.69992320	      6.04774998	     22.06614861	      2.02602861	     -4.64909280	    -21.50805354	     94.62116182	    179.99984796	     15.22689886	    -24.14958695
1760624953.56971502	      8.94838142	     -1.55819968	      0.14984023	      0.16707912	      0.86806329	     -0.00434220	     80.00000000	     -7.00000000	      0.00000000	     80.00000000	      1.39626340	      0.00000000	      0.00000000	      0.00000000	     80.00000000	     -7.00000000	      0.00000000	     80.00000000	      1.39626340	      0.00000000	      0.00000000	      0.00000000	    -16.54021133	     -1.54118517	      2.89074111	      2.74825904	     -7.74848087	     -4.76891536	     95.72389800	    179.70016280	      6.04785881	     22.06597711	      2.04189237	     -4.65048581	    -21.49942549	     94.63636582	    179.99984796	     15.22689886	    -24.14958695
1760624953.57971501	      8.92393550	     -1.57176191	      0.16870219	      0.16696294	      0.86803973	     -0.00419476	     80.00000000	     -7.00000000	      0.00000000	     80.00000000	      1.39626340	      0.00000000	      0.00000000	      0.00000000	     80.00000000	     -7.00000000	      0.00000000	     80.00000000	      1.39626340	      0.00000000	      0.00000000	      0.00000000	    -16.53131322	     -1.55516901	      2.91688631	      2.73326539	     -7.74171944	     -4.77609826	     95.73003662	    179.70064940	      6.05127539	     22.06488794	      2.13650628	     -4.69725541	    -21.44778535	     94.76698909	    179.99984796	     15.22689886	    -24.14958695
1760624953.58971500	      8.92427450	     -1.57104929	      0.16815727	      0.16700613	      0.86809901	     -0.00422675	     80.00000000	     -7.00000000	      0.00000000	     80.00000000	      1.39626340	      0.00000000	      0.00000000	      0.00000000	     80.00000000	     -7.00000000	      0.00000000	     80.00000000	      1.39626340	      0.00000000	      0.00000000	      0.00000000	    -16.53022039	     -1.55440425	      2.91692211	      2.73397407	     -7.74195582	     -4.77666304	     95.73048387	    179.70062938	      6.05127761	     22.06490020	      2.13720516	     -4.69783684	    -21.44730581	     94.76836485	    179.99984796	     15.22689886	    -24.14958695
1760624953.59971499	      8.94000178	     -1.55864559	      0.15918010	      0.16716058	      0.86808400	     -0.00438300	     80.00000000	     -7.00000000	      0.00000000	     80.00000000	      1.39626340	      0.00000000	      0.00000000	      0.00000000	     80.00000000	     -7.00000000	      0.00000000	     80.00000000	      1.39626340	      0.00000000	      0.00000000	      0.00000000	    -16.51050990	     -1.54103623	      2.91573415	      2.73757418	     -7.74632733	     -4.78372967	     95.73208819	    179.70030059	      6.05165436	     22.06498775	      2.15953277	     -4.70743349	    -21.43803911	     94.79929552	    179.99984796	     15.22689886	    -24.14958695
